<svg xmlns="http://www.w3.org/2000/svg" width="279.562" height="137.473" viewBox="0 0 279.562 137.473">
  <g id="Gruppe_5" data-name="Gruppe 5" transform="translate(-56.719 -70)">
    <g id="logofont" transform="translate(196.5 191.454)">
      <g id="logofont-2" data-name="logofont" transform="translate(-139.781 -16.019)">
        <path id="Pfad_1" data-name="Pfad 1" d="M3.372,40.66a4.707,4.707,0,0,1,2.246-2.005A6.245,6.245,0,0,1,8.9,37.736a5.387,5.387,0,0,1,5.347,3.8,6.871,6.871,0,0,1,2.632-2.82,7.363,7.363,0,0,1,3.8-.982,6.311,6.311,0,0,1,5.138,2,8.223,8.223,0,0,1,1.671,5.43V56.625A1.805,1.805,0,0,1,25.9,58.447,1.755,1.755,0,0,1,23.977,56.7V45.839a7.113,7.113,0,0,0-.835-3.905A3.326,3.326,0,0,0,20.175,40.7a4.065,4.065,0,0,0-3.4,1.524,6.158,6.158,0,0,0-1.191,3.906V56.626A1.763,1.763,0,0,1,14.036,58.4a1.713,1.713,0,0,1-1.881-1.7V45.839a6.553,6.553,0,0,0-.94-3.8,3.306,3.306,0,0,0-2.9-1.336,4.075,4.075,0,0,0-3.551,1.8,5.351,5.351,0,0,0-1.253,3.593V56.583A1.8,1.8,0,0,1,1.927,58.4,1.755,1.755,0,0,1,0,56.658V43.25L.021,39.4A1.675,1.675,0,0,1,1.7,37.737h0a1.676,1.676,0,0,1,1.676,1.675Z" transform="translate(0 -27.458)" fill="#191919"/>
        <path id="Pfad_2" data-name="Pfad 2" d="M147.509,59.836a8.56,8.56,0,0,1-3.446-3.655,11.942,11.942,0,0,1-1.191-5.451,12.189,12.189,0,0,1,2.339-7.644q2.339-3.049,7.1-3.049a8.746,8.746,0,0,1,8.521,5.368,11.78,11.78,0,0,1,.961,4.615q0,2.09-2.381,2.089H146.423a5.834,5.834,0,0,0,1.713,4.407,6.516,6.516,0,0,0,4.72,1.65,8.7,8.7,0,0,0,4.871-1.331,1.432,1.432,0,0,1,1.858.224h0a1.43,1.43,0,0,1-.238,2.115,9.724,9.724,0,0,1-2.147,1.165,11.707,11.707,0,0,1-4.344.793A10.548,10.548,0,0,1,147.509,59.836Zm10.777-10.61a6.558,6.558,0,0,0-1.566-4.47,5.538,5.538,0,0,0-4.407-1.8,5.5,5.5,0,0,0-5.243,3.279,7.2,7.2,0,0,0-.647,2.986Z" transform="translate(-103.958 -29.132)" fill="#191919"/>
        <path id="Pfad_3" data-name="Pfad 3" d="M270,31.538a9.505,9.505,0,0,1-7.061,2.924,8.234,8.234,0,0,1-6.621-2.82,11.1,11.1,0,0,1-2.4-7.456,12.117,12.117,0,0,1,2.4-7.832,8.26,8.26,0,0,1,6.83-2.986,7.453,7.453,0,0,1,6.349,3.3V5.133a1.749,1.749,0,0,1,1.749-1.749h0A1.748,1.748,0,0,1,273,5.143c-.022,3.706-.071,12.37-.071,17.2C272.927,28.614,270.628,30.869,270,31.538Zm-3.364-.92a5.913,5.913,0,0,0,2.13-2.465,7.718,7.718,0,0,0,.731-3.342V23.058a7.859,7.859,0,0,0-.71-3.279,6.146,6.146,0,0,0-2.068-2.528,5.459,5.459,0,0,0-3.237-.961,5.057,5.057,0,0,0-4.574,2.214,10.232,10.232,0,0,0-1.442,5.681,8.916,8.916,0,0,0,1.462,5.305,5.036,5.036,0,0,0,4.386,2.047A5.916,5.916,0,0,0,266.64,30.618Z" transform="translate(-184.76 -2.462)" fill="#191919"/>
        <path id="Pfad_4" data-name="Pfad 4" d="M375.48,41.572a1.754,1.754,0,0,0-1.754,1.754V60.076a1.754,1.754,0,1,0,3.509,0V43.326A1.755,1.755,0,0,0,375.48,41.572Z" transform="translate(-271.935 -30.249)" fill="#191919"/>
        <path id="Pfad_5" data-name="Pfad 5" d="M375.239,11.344a2.676,2.676,0,0,1-3.676,0,2.468,2.468,0,0,1-.148-3.395,2.668,2.668,0,0,1,3.972,0,2.368,2.368,0,0,1,.6,1.418A2.413,2.413,0,0,1,375.239,11.344Z" transform="translate(-269.814 -5.139)" fill="#191919"/>
        <path id="Pfad_6" data-name="Pfad 6" d="M651.73,43.63a7.678,7.678,0,0,1,2.9-2.632,8.228,8.228,0,0,1,3.905-.961,6.56,6.56,0,0,1,5.347,2.109,9.352,9.352,0,0,1,1.754,6.12V58.948a1.765,1.765,0,0,1-1.765,1.765h0a1.765,1.765,0,0,1-1.765-1.779l.022-2.774V48.224a6.083,6.083,0,0,0-1.065-3.948,4.2,4.2,0,0,0-3.4-1.274,5,5,0,0,0-2.966.919,6.044,6.044,0,0,0-2.005,2.465,5.113,5.113,0,0,0-.71,2.747v9.826a1.754,1.754,0,0,1-1.755,1.755h0a1.755,1.755,0,0,1-1.754-1.755V41.68a1.643,1.643,0,0,1,1.643-1.643h0a1.643,1.643,0,0,1,1.643,1.667Z" transform="translate(-471.849 -29.132)" fill="#191919"/>
        <path id="Pfad_7" data-name="Pfad 7" d="M438.012,43.65a4.7,4.7,0,0,1,2.246-2.005,6.246,6.246,0,0,1,3.279-.919,5.387,5.387,0,0,1,5.347,3.8,6.873,6.873,0,0,1,2.632-2.82,7.363,7.363,0,0,1,3.8-.982,6.31,6.31,0,0,1,5.138,2,8.224,8.224,0,0,1,1.671,5.43V59.615a1.806,1.806,0,0,1-1.582,1.822,1.755,1.755,0,0,1-1.927-1.746V48.829a7.11,7.11,0,0,0-.835-3.905,3.326,3.326,0,0,0-2.966-1.232,4.065,4.065,0,0,0-3.4,1.524,6.16,6.16,0,0,0-1.191,3.906V59.616a1.763,1.763,0,0,1-1.544,1.778,1.713,1.713,0,0,1-1.881-1.7V48.829a6.555,6.555,0,0,0-.94-3.8,3.307,3.307,0,0,0-2.9-1.336,4.076,4.076,0,0,0-3.551,1.8,5.351,5.351,0,0,0-1.253,3.593V59.573a1.805,1.805,0,0,1-1.582,1.821,1.754,1.754,0,0,1-1.926-1.746V46.24l.021-3.847a1.676,1.676,0,0,1,1.676-1.666h0a1.675,1.675,0,0,1,1.675,1.675Z" transform="translate(-316.258 -29.634)" fill="#191919"/>
        <path id="Pfad_8" data-name="Pfad 8" d="M772.969,28.154a9.5,9.5,0,0,1-7.061,2.924,8.235,8.235,0,0,1-6.621-2.82,11.1,11.1,0,0,1-2.4-7.456,12.117,12.117,0,0,1,2.4-7.832,8.262,8.262,0,0,1,6.83-2.986,7.453,7.453,0,0,1,6.349,3.3V1.749A1.749,1.749,0,0,1,774.216,0h0a1.748,1.748,0,0,1,1.749,1.759c-.022,3.706-.071,12.37-.071,17.2C775.893,25.23,773.594,27.485,772.969,28.154Zm-3.363-.92a5.91,5.91,0,0,0,2.13-2.465,7.714,7.714,0,0,0,.731-3.342V19.674a7.859,7.859,0,0,0-.71-3.279,6.146,6.146,0,0,0-2.068-2.528,5.46,5.46,0,0,0-3.237-.961,5.057,5.057,0,0,0-4.574,2.214,10.232,10.232,0,0,0-1.442,5.681,8.918,8.918,0,0,0,1.462,5.305,5.037,5.037,0,0,0,4.386,2.047A5.914,5.914,0,0,0,769.606,27.234Z" transform="translate(-550.735)" fill="#191919"/>
        <path id="Pfad_9" data-name="Pfad 9" d="M877.18,56.452a8.561,8.561,0,0,1-3.446-3.655,11.942,11.942,0,0,1-1.19-5.451,12.189,12.189,0,0,1,2.339-7.644q2.339-3.049,7.1-3.049a8.745,8.745,0,0,1,8.521,5.368,11.777,11.777,0,0,1,.961,4.615q0,2.09-2.381,2.089H876.093a5.834,5.834,0,0,0,1.713,4.407,6.517,6.517,0,0,0,4.72,1.65A8.7,8.7,0,0,0,887.4,53.45a1.433,1.433,0,0,1,1.858.224h0a1.43,1.43,0,0,1-.238,2.115,9.729,9.729,0,0,1-2.147,1.165,11.707,11.707,0,0,1-4.344.793A10.551,10.551,0,0,1,877.18,56.452Zm10.777-10.61a6.559,6.559,0,0,0-1.566-4.47,5.538,5.538,0,0,0-4.407-1.8,5.5,5.5,0,0,0-5.243,3.279,7.206,7.206,0,0,0-.647,2.986Z" transform="translate(-634.89 -26.67)" fill="#191919"/>
        <path id="Pfad_10" data-name="Pfad 10" d="M985.563,41.5a6.272,6.272,0,0,1,2.191-2.338,5.959,5.959,0,0,1,3.3-.848,5.17,5.17,0,0,1,2.2.527c.123.069.255.141.4.217a1.277,1.277,0,0,1,.4,1.9h0a1.29,1.29,0,0,1-1.5.4,5.941,5.941,0,0,0-2.022-.4c-1.615,0-2.56,1.283-3.423,2.509a8.008,8.008,0,0,0-1.295,4.72v9.4a1.755,1.755,0,0,1-1.755,1.755h0a1.754,1.754,0,0,1-1.754-1.755V39.938a1.626,1.626,0,0,1,1.625-1.625h0a1.626,1.626,0,0,1,1.626,1.621Z" transform="translate(-714.758 -27.878)" fill="#191919"/>
        <path id="Pfad_11" data-name="Pfad 11" d="M581.661,13.023a2.408,2.408,0,0,1-.745-1.975,2.379,2.379,0,0,1,.6-1.42,2.671,2.671,0,0,1,3.973,0,2.375,2.375,0,0,1,.6,1.418,2.408,2.408,0,0,1-.744,1.978,2.677,2.677,0,0,1-3.676,0Zm1.8,5.117h0a1.754,1.754,0,0,1,1.754,1.754v16.75a1.754,1.754,0,0,1-1.754,1.754h0a1.754,1.754,0,0,1-1.755-1.754V19.894A1.754,1.754,0,0,1,583.457,18.14Z" transform="translate(-422.689 -6.36)" fill="#191919"/>
      </g>
    </g>
    <g id="Simple_Logo" data-name="Simple Logo" transform="translate(197.698 111.837)">
      <g id="Logo" transform="translate(-41.305 -41.837)">
        <path id="Pfad_12" data-name="Pfad 12" d="M191.4,83.662h35.3s6.211.629,6.132-7,0-30.818,0-30.818l.392-37.972S234.006-.1,226.066.034s-20.991,0-20.991,0H192.1S184.949-.93,184.792,7.4s0,67.846,0,67.846S183.455,82.876,191.4,83.662Z" transform="translate(-167.614 0)" fill="#245fc9"/>
        <g id="Ring" transform="translate(0 9.172)">
          <path id="Pfad_13" data-name="Pfad 13" d="M83.039,181.079a11.662,11.662,0,0,0-5.11,9.277,8.909,8.909,0,0,0,5.11,8.569" transform="translate(-71.129 -172.785)" fill="none" stroke="#245fc9" stroke-linecap="round" stroke-miterlimit="10" stroke-width="1.447"/>
          <path id="Pfad_14" data-name="Pfad 14" d="M747.723,203.408a11.662,11.662,0,0,0,5.11-9.277,8.909,8.909,0,0,0-5.11-8.569" transform="translate(-676.323 -176.836)" fill="none" stroke="#245fc9" stroke-linecap="round" stroke-miterlimit="10" stroke-width="1.447"/>
          <path id="Pfad_15" data-name="Pfad 15" d="M7.528,273.587s-1.03,10.171,9.323,17.649" transform="translate(-7.5 -256.37)" fill="none" stroke="#245fc9" stroke-linecap="round" stroke-miterlimit="10" stroke-width="1.447"/>
          <path id="Pfad_16" data-name="Pfad 16" d="M28.767,99.575s-5.369,2.48-8.08,10.482" transform="translate(-19.415 -99.143)" fill="none" stroke="#245fc9" stroke-linecap="round" stroke-miterlimit="10" stroke-width="1.447"/>
          <path id="Pfad_17" data-name="Pfad 17" d="M776.31,112.741s1.03-10.171-9.323-17.649" transform="translate(-693.729 -95.092)" fill="none" stroke="#245fc9" stroke-linecap="round" stroke-miterlimit="10" stroke-width="1.447"/>
          <path id="Pfad_18" data-name="Pfad 18" d="M766.987,353.9s5.369-2.48,8.08-10.482" transform="translate(-693.729 -319.462)" fill="none" stroke="#245fc9" stroke-linecap="round" stroke-miterlimit="10" stroke-width="1.447"/>
        </g>
        <path id="Ring_Phone" data-name="Ring Phone" d="M267.064,143.276h4.941A2.567,2.567,0,0,0,274.3,140.5V75.451a2.567,2.567,0,0,0-2.292-2.773H237.595a2.567,2.567,0,0,0-2.292,2.773V140.5a2.567,2.567,0,0,0,2.292,2.773Z" transform="translate(-213.33 -65.668)" fill="#245fc9" stroke="#fff" stroke-miterlimit="10" stroke-width="1.929"/>
        <path id="Pill" d="M306.43,243.6a8.108,8.108,0,0,0-11.469,0l-7.263,7.263-7.263,7.264A8.109,8.109,0,1,0,291.9,269.594l7.263-7.263,7.263-7.264a8.109,8.109,0,0,0,0-11.468Zm-16.055,24.466a5.947,5.947,0,0,1-8.411-8.41l6.5-6.5,8.411,8.411ZM304.9,253.538l-6.5,6.5-8.411-8.411,6.5-6.5a5.947,5.947,0,0,1,8.411,8.411Z" transform="translate(-251.963 -217.955)" fill="#f2f2f2"/>
        <path id="Pfad_19" data-name="Pfad 19" d="M487.375,285.346a.794.794,0,0,1-.656-.345,1.985,1.985,0,0,0-3.043-.285.794.794,0,0,1-1.122-1.122,3.573,3.573,0,0,1,5.475.509.794.794,0,0,1-.654,1.242Z" transform="translate(-436.522 -255.294)" fill="#f2f2f2"/>
      </g>
    </g>
  </g>
</svg>
