<?xml version="1.0" standalone="no"?>
<!DOCTYPE svg PUBLIC "-//W3C//DTD SVG 20010904//EN"
 "http://www.w3.org/TR/2001/REC-SVG-20010904/DTD/svg10.dtd">
<svg version="1.0" xmlns="http://www.w3.org/2000/svg"
 width="443.000000pt" height="443.000000pt" viewBox="0 0 443.000000 443.000000"
 preserveAspectRatio="xMidYMid meet">
<metadata>
Created by potrace 1.14, written by Peter Selinger 2001-2017
</metadata>
<g transform="translate(0.000000,443.000000) scale(0.100000,-0.100000)"
fill="#000000" stroke="none">
<path d="M360 4361 c-159 -40 -283 -168 -318 -328 -6 -25 -9 -776 -8 -1860 2
-1677 4 -1821 19 -1861 58 -148 182 -253 332 -282 66 -12 3641 -11 3682 2 103
32 223 128 268 217 56 111 53 10 53 1938 1 1928 3 1859 -54 1962 -34 63 -111
141 -173 174 -103 57 -18 54 -1952 54 -1617 1 -1791 -1 -1849 -16z"/>
</g>
</svg>
